<svg width="195" height="164" viewBox="0 0 195 164" fill="none" xmlns="http://www.w3.org/2000/svg">
<path fill-rule="evenodd" clip-rule="evenodd" d="M0.0580751 0H118.552C132.152 0 146.375 0.818349 158.394 7.83358C160.365 8.9843 162.363 10.2848 164.317 11.749C173.899 18.9298 182.31 30.8096 182.784 42.3464C183.045 48.7046 181.938 59.2883 178.889 65.9131C176.97 70.0826 174.515 73.066 172.535 75.0102C171.749 75.7819 171.036 76.3908 170.461 76.8463C170.679 76.9443 170.916 77.053 171.17 77.1725C172.598 77.8432 174.574 78.8549 176.779 80.2232C181.176 82.9525 186.542 87.1372 190.246 92.9189C193.086 97.3533 194.38 103.018 194.818 108.63C195.258 114.255 194.843 119.914 194.196 124.409C193.444 129.625 191.293 135.607 188.112 141.093C185.182 146.149 181.344 150.839 176.85 154.132C176.305 154.548 175.75 154.943 175.187 155.315C162.563 163.639 146.764 163.985 145.581 163.999C145.529 164 145.484 164 145.432 164H8.16503L0 145.5V1.87162H0.0580751V0Z" fill="url(#paint0_linear_1_1652)"/>
<path fill-rule="evenodd" clip-rule="evenodd" d="M5.05005 3H107.168C118.888 3 131.145 3.69959 141.503 9.69676C143.202 10.6805 144.924 11.7923 146.607 13.044C154.866 19.1827 162.114 29.3384 162.522 39.201C162.747 44.6365 161.793 53.6843 159.165 59.3477C157.512 62.9121 155.396 65.4626 153.689 67.1246C153.012 67.7843 152.398 68.3048 151.902 68.6942C152.09 68.778 152.294 68.871 152.514 68.9731C153.744 69.5464 155.447 70.4113 157.347 71.5811C161.137 73.9143 165.761 77.4917 168.953 82.4344C171.4 86.2252 172.516 91.0677 172.893 95.8651C173.272 100.674 172.914 105.512 172.357 109.354C171.709 113.814 169.855 118.927 167.114 123.617C164.589 127.939 161.281 131.949 157.408 134.764C156.939 135.12 156.461 135.457 155.975 135.775C145.096 142.891 131.48 143.187 130.461 143.2C130.416 143.2 130.377 143.2 130.332 143.2H5V4.60001H5.05005V3ZM151.267 70.2131C150.928 70.0616 150.645 69.9412 150.429 69.8516C150.349 69.8185 150.278 69.7896 150.217 69.7649C150.206 69.7717 150.2 69.775 150.2 69.775C150.2 69.775 150.59 69.9195 151.267 70.2131ZM40.0323 56.5294V36.775H104.743C105.364 36.775 105.991 36.7711 106.623 36.7671L106.71 36.7666C112.293 36.7306 118.194 36.6926 122.895 39.1791C123.666 39.6049 124.398 40.1036 125.085 40.6873C125.846 41.3336 126.394 42.3023 126.752 43.4047C127.108 44.5018 127.256 45.6725 127.256 46.6471C127.256 47.7366 127.008 49.0677 126.5 50.3188C125.991 51.5731 125.247 52.6843 124.301 53.4015C120.029 56.6398 114.257 56.609 108.393 56.5459C107.627 56.5376 106.86 56.5294 106.102 56.5294H40.0323ZM38.6771 58.1765H38.5382V58.225H38.6771V58.1765ZM39.4972 88.75H118.935C119.606 88.75 120.286 88.7428 120.97 88.7356L120.983 88.7355C125.979 88.6827 131.228 88.6273 135.194 91.3074C135.383 91.4465 135.567 91.5927 135.748 91.7462C136.523 92.4052 137.281 93.5996 137.85 94.9424C138.417 96.2822 138.738 97.6316 138.738 98.5294C138.738 99.628 138.486 101.178 137.969 102.649C137.445 104.138 136.694 105.417 135.783 106.107C131.645 109.244 126.045 109.256 120.404 109.238C119.996 109.237 119.587 109.235 119.181 109.235H39.4972V88.75ZM38 110.882V111.025H38.6771V110.882H38Z" fill="white"/>
<defs>
<linearGradient id="paint0_linear_1_1652" x1="77.4214" y1="16.7214" x2="77.4214" y2="180.721" gradientUnits="userSpaceOnUse">
<stop stop-color="#2E6B4D"/>
<stop offset="1" stop-color="#022B18"/>
</linearGradient>
</defs>
</svg>
